<svg id="Calque_1" data-name="Calque 1" xmlns="http://www.w3.org/2000/svg" viewBox="0 0 155.19 40.23"><defs><style>.cls-1{fill:#fff;}</style></defs><title>logo-full-white</title><path class="cls-1" d="M67.92,29.72H60.71a.71.71,0,0,1-.71-.36L55.66,21.8c-.14-.27-.32-.23-.54-.05l-.23.18a.74.74,0,0,0-.26.67v6.67c0,.36-.14.45-.36.45H47.69a.4.4,0,0,1-.45-.45V1.92a.4.4,0,0,1,.45-.44h6.49a.42.42,0,0,1,.45.44V12.67a10.55,10.55,0,0,1-.32,2.73l5.24-6.49a.89.89,0,0,1,.81-.32h6.8a.4.4,0,0,1,.31.72L61,16.2A.57.57,0,0,0,61,17l7.34,12C68.5,29.36,68.41,29.72,67.92,29.72Z"/><path class="cls-1" d="M78.17,30.3c-5.82,0-9.85-3.4-9.85-8.46V16.47c0-5.06,4-8.46,9.85-8.46s9.66,3.31,9.66,8.46v5.37C87.83,26.94,83.9,30.3,78.17,30.3Zm2.19-14.5a2,2,0,0,0-2.19-1.88c-1.48,0-2.37.85-2.37,1.88v6.71c0,1.08.89,1.88,2.37,1.88a2,2,0,0,0,2.19-1.88Z"/><path class="cls-1" d="M94.64,7a3.49,3.49,0,0,1-3.72-3.44,3.75,3.75,0,0,1,7.48,0A3.61,3.61,0,0,1,94.64,7ZM98,29.72H91.41c-.26,0-.44-.09-.44-.45V9c0-.32.18-.41.44-.41H98a.4.4,0,0,1,.4.41V29.27C98.35,29.63,98.17,29.72,98,29.72Z"/><path class="cls-1" d="M121,29.72h-6.54c-.22,0-.4-.09-.4-.45V16.51c0-1.07-.81-1.79-2.24-1.79s-2.28.77-2.28,1.79V29.27a.4.4,0,0,1-.45.45H102.6a.4.4,0,0,1-.45-.45V9c0-.32.23-.41.45-.41h4.75a.5.5,0,0,1,.49.41v1.07c0,.27.27.27.45.13a7.37,7.37,0,0,1,4.87-1.61c5.29,0,8.28,2.78,8.28,7.92V29.27A.4.4,0,0,1,121,29.72Z"/><path class="cls-1" d="M121.44,40.23c-.31,0-.49-.13-.49-.44V34c0-.4.18-.58.58-.58,2.29,0,3.45-.76,3.45-2.06V9c0-.32.22-.41.45-.41H132a.4.4,0,0,1,.4.41V31.46C132.36,36.39,129.77,40.23,121.44,40.23ZM128.65,7a3.49,3.49,0,0,1-3.72-3.44,3.75,3.75,0,0,1,7.48,0A3.61,3.61,0,0,1,128.65,7Z"/><path class="cls-1" d="M154.79,29.72H150c-.27,0-.54-.23-.54-.41V28.24c0-.27-.22-.27-.4-.13a7.41,7.41,0,0,1-4.88,1.61c-5.28,0-8.28-2.78-8.28-7.92V9c0-.36.18-.45.4-.45h6.54a.4.4,0,0,1,.44.45V21.8c0,1.07.76,1.79,2.2,1.79s2.32-.76,2.32-1.79V9c0-.36.18-.45.41-.45h6.58c.22,0,.4.09.4.45V29.31A.36.36,0,0,1,154.79,29.72Z"/><path class="cls-1" d="M15.06,8.28A6.93,6.93,0,1,0,22,15.21,6.93,6.93,0,0,0,15.06,8.28Zm0,9.77a2.84,2.84,0,0,1,0-5.68,3.08,3.08,0,0,1,.75.1,1.46,1.46,0,0,0-.14.63,1.41,1.41,0,0,0,1.42,1.42,1.43,1.43,0,0,0,.68-.17,2.71,2.71,0,0,1,.13.86A2.84,2.84,0,0,1,15.06,18.05Z"/><path class="cls-1" d="M30.85,27.7,24.34,17.2a9.52,9.52,0,0,1-6.55,7.1l3,5,.25.42H29.7C30.17,29.68,31.72,29.44,30.85,27.7Z"/><path class="cls-1" d="M5.57,15.21a9.5,9.5,0,0,1,8.92-9.47V1.48H7.89C5.65,1.69,5.1,3.64,5,4.89V7.24c-2.34,1.1-5,3-5,6.08,0,.83,2.64,1.11,5,1.19v1.94c-2.34,1.1-5,3-5,6.08,0,.83,2.64,1.11,5,1.19v6h6.64c2.24-.25,2.76-2.24,2.87-3.48V24.68A9.5,9.5,0,0,1,5.57,15.21Z"/><path class="cls-1" d="M24,12.06l6.15-8.3c1.11-1.88-.33-2.22-.91-2.28H21.54l-.26.35-3.2,4.38A9.58,9.58,0,0,1,24,12.06Z"/></svg>